# xmcd
#
# Track frame offsets:
#	150
#	15538
#	32166
#	47438
#	57078
#	69132
#	82732
#	96686
#	112601
#	129318
#	151258
#	161298
#	173336
#	195354
#	205102
#	220084
#	235397
#	250478
#	261499
#	276103
#
# Disc length: 3825 seconds
#
# Revision: 0
# Processed by: cddbd v1.5.2PL0 Copyright (c) Steve Scherf et al.
# Submitted via: dBpowerAMP V4.0
#
DISCID=fa0eef14
DTITLE=Mary Flower - Instrumental Breakdown
DYEAR=2007
DGENRE=Blues
TTITLE0=Black Rat Swing
TTITLE1=Hobo's Hop
TTITLE2=Raise the Devil
TTITLE3=Black Dog Rag
TTITLE4=La Grippe
TTITLE5=Good News Waltz
TTITLE6=Hula Hoedown
TTITLE7=Monon Blues
TTITLE8=Terminal Rag
TTITLE9=Three Sisters Waltz
TTITLE10=Ladyfingers
TTITLE11=Crooked
TTITLE12=Hudson River Rag
TTITLE13=Jesse's Jump
TTITLE14=Ragtime Gal
TTITLE15=Arkansas Ramble
TTITLE16=Slovak Stomp
TTITLE17=Maplewood
TTITLE18=Monkeys on a Binge
TTITLE19=Song for Samantha
EXTD=
EXTT0=
EXTT1=
EXTT2=
EXTT3=
EXTT4=
EXTT5=
EXTT6=
EXTT7=
EXTT8=
EXTT9=
EXTT10=
EXTT11=
EXTT12=
EXTT13=
EXTT14=
EXTT15=
EXTT16=
EXTT17=
EXTT18=
EXTT19=
PLAYORDER=
